<svg xmlns="http://www.w3.org/2000/svg" xmlns:xlink="http://www.w3.org/1999/xlink" width="821" zoomAndPan="magnify" viewBox="0 0 615.75 339.749992" height="453" preserveAspectRatio="xMidYMid meet" version="1.0"><defs><g/><clipPath id="cee3fea946"><path d="M 317.464844 8.800781 L 401.90625 8.800781 L 401.90625 67.257812 L 317.464844 67.257812 Z M 317.464844 8.800781 " clip-rule="nonzero"/></clipPath><clipPath id="55d56b59dd"><path d="M 267.4375 0 L 332.640625 0 L 332.640625 44.96875 L 267.4375 44.96875 Z M 267.4375 0 " clip-rule="nonzero"/></clipPath></defs><g fill="#222222" fill-opacity="1"><g transform="translate(54.074881, 306.550583)"><g><path d="M 4.6875 -15.828125 C 5.488281 -15.828125 5.992188 -15.515625 6.203125 -14.890625 C 6.410156 -14.265625 6.515625 -13.238281 6.515625 -11.8125 C 6.515625 -10.394531 6.707031 -9.066406 7.09375 -7.828125 C 7.488281 -6.585938 8.03125 -5.539062 8.71875 -4.6875 C 10.125 -2.988281 12.066406 -2.140625 14.546875 -2.140625 C 17.023438 -2.140625 19 -3.050781 20.46875 -4.875 C 21.945312 -6.707031 22.6875 -9.332031 22.6875 -12.75 C 22.6875 -17.320312 20.742188 -21.390625 16.859375 -24.953125 C 15.753906 -25.960938 14.617188 -26.960938 13.453125 -27.953125 C 12.296875 -28.941406 11.164062 -29.960938 10.0625 -31.015625 C 8.957031 -32.078125 7.96875 -33.25 7.09375 -34.53125 C 5.1875 -37.363281 4.234375 -40.582031 4.234375 -44.1875 C 4.234375 -47.882812 5.328125 -50.875 7.515625 -53.15625 C 9.671875 -55.40625 12.382812 -56.53125 15.65625 -56.53125 C 18.457031 -56.53125 20.753906 -55.585938 22.546875 -53.703125 C 24.546875 -51.546875 25.460938 -48.554688 25.296875 -44.734375 C 25.273438 -44.554688 25.269531 -44.363281 25.28125 -44.15625 C 25.289062 -43.945312 25.265625 -43.554688 25.203125 -42.984375 C 25.148438 -42.410156 24.910156 -41.898438 24.484375 -41.453125 C 24.066406 -41.003906 23.609375 -40.78125 23.109375 -40.78125 C 22.617188 -40.78125 22.203125 -41.003906 21.859375 -41.453125 C 21.515625 -41.898438 21.398438 -42.488281 21.515625 -43.21875 C 21.804688 -44.894531 21.953125 -46.164062 21.953125 -47.03125 C 21.953125 -47.894531 21.796875 -48.71875 21.484375 -49.5 C 21.179688 -50.28125 20.742188 -50.96875 20.171875 -51.5625 C 18.921875 -52.832031 17.3125 -53.46875 15.34375 -53.46875 C 13.15625 -53.46875 11.375 -52.71875 10 -51.21875 C 8.476562 -49.5625 7.71875 -47.523438 7.71875 -45.109375 C 7.71875 -42.703125 7.984375 -40.757812 8.515625 -39.28125 C 9.046875 -37.800781 9.738281 -36.460938 10.59375 -35.265625 C 11.457031 -34.066406 12.441406 -32.972656 13.546875 -31.984375 C 14.648438 -30.992188 15.769531 -30.015625 16.90625 -29.046875 C 18.039062 -28.085938 19.160156 -27.097656 20.265625 -26.078125 C 21.367188 -25.054688 22.359375 -23.925781 23.234375 -22.6875 C 25.140625 -19.875 26.09375 -16.644531 26.09375 -13 C 26.09375 -8.71875 24.988281 -5.300781 22.78125 -2.75 C 20.601562 -0.226562 17.6875 1.03125 14.03125 1.03125 C 10.625 1.03125 7.851562 -0.273438 5.71875 -2.890625 C 3.695312 -5.347656 2.6875 -8.117188 2.6875 -11.203125 C 2.6875 -14.285156 3.351562 -15.828125 4.6875 -15.828125 Z M 4.6875 -15.828125 "/></g></g></g><g fill="#222222" fill-opacity="1"><g transform="translate(84.662398, 306.550583)"><g><path d="M 28.265625 -6.859375 C 25.597656 -1.753906 21.863281 0.796875 17.0625 0.796875 C 12.257812 0.796875 8.722656 -1.679688 6.453125 -6.640625 C 4.191406 -11.609375 3.0625 -18.941406 3.0625 -28.640625 C 3.0625 -36.296875 4.363281 -42.71875 6.96875 -47.90625 C 8.25 -50.4375 9.804688 -52.453125 11.640625 -53.953125 C 13.484375 -55.460938 15.601562 -56.21875 18 -56.21875 C 20.40625 -56.21875 22.503906 -55.59375 24.296875 -54.34375 C 26.085938 -53.09375 27.570312 -51.28125 28.75 -48.90625 C 31.039062 -44.269531 32.210938 -37.515625 32.265625 -28.640625 C 32.304688 -19.316406 30.972656 -12.054688 28.265625 -6.859375 Z M 24.515625 -49.375 C 23.703125 -50.5625 22.753906 -51.492188 21.671875 -52.171875 C 20.597656 -52.847656 19.40625 -53.1875 18.09375 -53.1875 C 16.78125 -53.1875 15.59375 -52.847656 14.53125 -52.171875 C 13.476562 -51.492188 12.519531 -50.554688 11.65625 -49.359375 C 10.800781 -48.160156 10.046875 -46.75 9.390625 -45.125 C 8.734375 -43.507812 8.175781 -41.773438 7.71875 -39.921875 C 6.820312 -36.097656 6.375 -32.285156 6.375 -28.484375 C 6.375 -24.679688 6.515625 -21.492188 6.796875 -18.921875 C 7.085938 -16.347656 7.484375 -14.125 7.984375 -12.25 C 8.492188 -10.375 9.097656 -8.8125 9.796875 -7.5625 C 10.503906 -6.3125 11.257812 -5.304688 12.0625 -4.546875 C 13.5625 -3.191406 15.34375 -2.515625 17.40625 -2.515625 C 23.519531 -2.515625 27.234375 -8.132812 28.546875 -19.375 C 28.835938 -21.945312 28.984375 -24.566406 28.984375 -27.234375 C 28.984375 -29.898438 28.898438 -32.234375 28.734375 -34.234375 C 28.578125 -36.234375 28.320312 -38.15625 27.96875 -40 C 27.613281 -41.851562 27.15625 -43.582031 26.59375 -45.1875 C 26.03125 -46.800781 25.335938 -48.195312 24.515625 -49.375 Z M 24.515625 -49.375 "/></g></g></g><g fill="#222222" fill-opacity="1"><g transform="translate(120.764389, 306.550583)"><g><path d="M 24.640625 -14.234375 C 24.640625 -14.992188 24.828125 -15.585938 25.203125 -16.015625 C 25.585938 -16.441406 26.023438 -16.65625 26.515625 -16.65625 C 27.015625 -16.65625 27.453125 -16.472656 27.828125 -16.109375 C 28.210938 -15.753906 28.378906 -15.210938 28.328125 -14.484375 C 28.097656 -9.835938 26.847656 -6.101562 24.578125 -3.28125 C 22.390625 -0.5625 19.65625 0.796875 16.375 0.796875 C 10.164062 0.796875 6.15625 -3.847656 4.34375 -13.140625 C 3.65625 -16.554688 3.3125 -20.59375 3.3125 -25.25 C 3.3125 -29.90625 3.597656 -34.050781 4.171875 -37.6875 C 4.742188 -41.332031 5.617188 -44.5 6.796875 -47.1875 C 9.296875 -52.9375 12.851562 -55.8125 17.46875 -55.8125 C 21.0625 -55.8125 23.71875 -54.394531 25.4375 -51.5625 C 27.25 -48.550781 28.15625 -43.632812 28.15625 -36.8125 C 28.15625 -36.050781 27.984375 -35.476562 27.640625 -35.09375 C 27.296875 -34.71875 26.882812 -34.53125 26.40625 -34.53125 C 25.34375 -34.53125 24.8125 -35.195312 24.8125 -36.53125 C 24.8125 -45.039062 23.457031 -50.109375 20.75 -51.734375 C 19.78125 -52.304688 18.648438 -52.59375 17.359375 -52.59375 C 16.078125 -52.59375 14.925781 -52.226562 13.90625 -51.5 C 12.882812 -50.78125 11.976562 -49.785156 11.1875 -48.515625 C 10.394531 -47.242188 9.707031 -45.738281 9.125 -44 C 8.550781 -42.257812 8.082031 -40.394531 7.71875 -38.40625 C 6.988281 -34.351562 6.625 -30.359375 6.625 -26.421875 C 6.625 -22.484375 6.75 -19.320312 7 -16.9375 C 7.25 -14.5625 7.601562 -12.53125 8.0625 -10.84375 C 8.519531 -9.15625 9.066406 -7.773438 9.703125 -6.703125 C 10.335938 -5.628906 11.03125 -4.785156 11.78125 -4.171875 C 13.070312 -3.085938 14.71875 -2.546875 16.71875 -2.546875 C 18.945312 -2.546875 20.773438 -3.457031 22.203125 -5.28125 C 23.878906 -7.363281 24.691406 -10.347656 24.640625 -14.234375 Z M 24.640625 -14.234375 "/></g></g></g><g fill="#222222" fill-opacity="1"><g transform="translate(153.48876, 306.550583)"><g><path d="M 10.109375 -48.5625 C 10.078125 -47.601562 10.054688 -46.492188 10.046875 -45.234375 C 10.035156 -43.984375 10.03125 -38.945312 10.03125 -30.125 C 10.03125 -21.300781 10.164062 -12.019531 10.4375 -2.28125 C 10.46875 -1.539062 10.257812 -0.972656 9.8125 -0.578125 C 9.363281 -0.191406 8.890625 0 8.390625 0 C 7.898438 0 7.460938 -0.171875 7.078125 -0.515625 C 6.703125 -0.859375 6.535156 -1.628906 6.578125 -2.828125 C 6.628906 -4.023438 6.675781 -5.679688 6.71875 -7.796875 C 6.769531 -9.910156 6.816406 -12.160156 6.859375 -14.546875 C 6.953125 -19.273438 7 -23.691406 7 -27.796875 C 7 -31.898438 6.992188 -35.09375 6.984375 -37.375 C 6.972656 -39.664062 6.941406 -41.773438 6.890625 -43.703125 C 6.828125 -47.984375 6.703125 -51.394531 6.515625 -53.9375 C 6.441406 -54.675781 6.570312 -55.222656 6.90625 -55.578125 C 7.238281 -55.929688 7.671875 -56.109375 8.203125 -56.109375 C 8.734375 -56.109375 9.226562 -55.929688 9.6875 -55.578125 C 10.144531 -55.222656 10.351562 -54.617188 10.3125 -53.765625 C 10.28125 -52.921875 10.25 -52.082031 10.21875 -51.25 C 10.1875 -50.425781 10.148438 -49.53125 10.109375 -48.5625 Z M 10.109375 -48.5625 "/></g></g></g><g fill="#222222" fill-opacity="1"><g transform="translate(171.151734, 306.550583)"><g><path d="M 15.859375 -55.875 C 16.410156 -55.875 16.914062 -55.644531 17.375 -55.1875 C 17.832031 -54.726562 18.191406 -53.769531 18.453125 -52.3125 C 18.722656 -50.851562 19.125 -48.765625 19.65625 -46.046875 C 20.195312 -43.335938 20.800781 -40.441406 21.46875 -37.359375 C 22.132812 -34.285156 22.835938 -31.109375 23.578125 -27.828125 C 24.316406 -24.554688 25.050781 -21.378906 25.78125 -18.296875 C 27.550781 -11.085938 28.929688 -5.816406 29.921875 -2.484375 C 30.148438 -1.628906 30.085938 -0.945312 29.734375 -0.4375 C 29.378906 0.0625 28.984375 0.3125 28.546875 0.3125 C 28.109375 0.3125 27.707031 0.1875 27.34375 -0.0625 C 26.988281 -0.320312 26.671875 -1.070312 26.390625 -2.3125 C 26.117188 -3.550781 25.671875 -5.5625 25.046875 -8.34375 C 24.429688 -11.125 23.769531 -14.109375 23.0625 -17.296875 C 23.039062 -17.441406 23.015625 -17.570312 22.984375 -17.6875 C 21.421875 -17.75 19.21875 -17.78125 16.375 -17.78125 C 13.019531 -17.78125 10.457031 -17.738281 8.6875 -17.65625 C 8.664062 -17.507812 8.644531 -17.367188 8.625 -17.234375 C 7.21875 -10.472656 6.179688 -5.242188 5.515625 -1.546875 C 5.285156 -0.378906 4.675781 0.203125 3.6875 0.203125 C 2.65625 0.203125 2.023438 -0.300781 1.796875 -1.3125 C 1.722656 -1.613281 1.789062 -2.082031 2 -2.71875 C 2.207031 -3.363281 2.507812 -4.472656 2.90625 -6.046875 C 3.3125 -7.617188 3.75 -9.421875 4.21875 -11.453125 C 4.6875 -13.492188 5.1875 -15.71875 5.71875 -18.125 C 6.25 -20.539062 6.789062 -23.023438 7.34375 -25.578125 C 7.894531 -28.128906 8.445312 -30.695312 9 -33.28125 C 9.550781 -35.863281 10.078125 -38.359375 10.578125 -40.765625 C 11.085938 -43.179688 11.566406 -45.445312 12.015625 -47.5625 C 12.460938 -49.675781 12.820312 -51.351562 13.09375 -52.59375 C 13.53125 -54.78125 14.453125 -55.875 15.859375 -55.875 Z M 9.34375 -20.859375 C 11.09375 -20.765625 13.445312 -20.71875 16.40625 -20.71875 C 18.863281 -20.71875 20.828125 -20.75 22.296875 -20.8125 C 21.816406 -22.90625 21.335938 -25.054688 20.859375 -27.265625 C 20.097656 -30.691406 19.375 -34.015625 18.6875 -37.234375 C 17.53125 -42.492188 16.539062 -47.109375 15.71875 -51.078125 C 15.1875 -48.441406 14.425781 -44.847656 13.4375 -40.296875 C 12.15625 -34.222656 11.179688 -29.601562 10.515625 -26.4375 C 10.117188 -24.53125 9.726562 -22.671875 9.34375 -20.859375 Z M 9.34375 -20.859375 "/></g></g></g><g fill="#222222" fill-opacity="1"><g transform="translate(204.013976, 306.550583)"><g><path d="M 7.171875 -56.015625 C 8.566406 -56.015625 9.265625 -55.015625 9.265625 -53.015625 C 9.265625 -50.304688 9.25 -47.453125 9.21875 -44.453125 C 9.1875 -41.453125 9.15625 -38.734375 9.125 -36.296875 C 9.101562 -33.859375 9.082031 -31.019531 9.0625 -27.78125 C 9.019531 -21.050781 8.972656 -12.789062 8.921875 -3 C 13.492188 -2.90625 17.882812 -3.066406 22.09375 -3.484375 C 22.914062 -3.578125 23.554688 -3.40625 24.015625 -2.96875 C 24.484375 -2.53125 24.71875 -2.066406 24.71875 -1.578125 C 24.71875 -1.097656 24.507812 -0.679688 24.09375 -0.328125 C 23.675781 0.0234375 23.066406 0.179688 22.265625 0.140625 C 19.648438 -0.0664062 16.828125 -0.113281 13.796875 0 C 10.773438 0.113281 8.953125 0.21875 8.328125 0.3125 C 7.710938 0.40625 7.257812 0.421875 6.96875 0.359375 C 6.6875 0.304688 6.429688 0.1875 6.203125 0 C 5.703125 -0.394531 5.472656 -0.96875 5.515625 -1.71875 C 5.785156 -7.101562 5.921875 -14.128906 5.921875 -22.796875 C 5.921875 -31.472656 5.914062 -36.835938 5.90625 -38.890625 C 5.894531 -40.953125 5.867188 -42.84375 5.828125 -44.5625 C 5.734375 -47.988281 5.535156 -51.070312 5.234375 -53.8125 C 5.171875 -54.539062 5.34375 -55.085938 5.75 -55.453125 C 6.164062 -55.828125 6.640625 -56.015625 7.171875 -56.015625 Z M 7.171875 -56.015625 "/></g></g></g><g fill="#222222" fill-opacity="1"><g transform="translate(231.051556, 306.550583)"><g/></g></g><g fill="#222222" fill-opacity="1"><g transform="translate(244.302949, 306.550583)"><g><path d="M 39.640625 -43.21875 L 39.671875 -30.78125 C 39.671875 -22.09375 39.851562 -12.546875 40.21875 -2.140625 C 40.25 -1.398438 40.0625 -0.859375 39.65625 -0.515625 C 39.25 -0.171875 38.789062 0 38.28125 0 C 37.78125 0 37.320312 -0.191406 36.90625 -0.578125 C 36.5 -0.972656 36.296875 -1.539062 36.296875 -2.28125 C 36.640625 -12.613281 36.8125 -21.226562 36.8125 -28.125 L 36.8125 -45.984375 C 36.8125 -47.316406 36.800781 -48.566406 36.78125 -49.734375 C 36.269531 -47.785156 35.613281 -45.25 34.8125 -42.125 C 32.976562 -35.25 31.691406 -30.492188 30.953125 -27.859375 C 30.210938 -25.234375 29.476562 -22.644531 28.75 -20.09375 C 27.226562 -14.832031 25.816406 -10.210938 24.515625 -6.234375 C 24.367188 -5.773438 24.09375 -5.429688 23.6875 -5.203125 C 23.289062 -4.972656 22.910156 -4.859375 22.546875 -4.859375 C 21.828125 -4.859375 21.34375 -5.316406 21.09375 -6.234375 C 20.976562 -6.609375 20.707031 -7.5 20.28125 -8.90625 C 19.851562 -10.320312 19.320312 -12.066406 18.6875 -14.140625 C 18.0625 -16.222656 17.363281 -18.554688 16.59375 -21.140625 C 15.820312 -23.734375 15.03125 -26.382812 14.21875 -29.09375 C 13.40625 -31.800781 12.609375 -34.488281 11.828125 -37.15625 C 11.046875 -39.820312 10.332031 -42.28125 9.6875 -44.53125 C 9.15625 -46.394531 8.707031 -48.003906 8.34375 -49.359375 L 8.40625 -40.8125 C 8.40625 -30.40625 8.515625 -21.800781 8.734375 -15 C 8.953125 -8.195312 9.070312 -4.242188 9.09375 -3.140625 C 9.125 -2.035156 9.070312 -1.351562 8.9375 -1.09375 C 8.8125 -0.84375 8.644531 -0.640625 8.4375 -0.484375 C 7.539062 0.273438 6.660156 0.253906 5.796875 -0.546875 C 5.378906 -0.941406 5.195312 -1.632812 5.25 -2.625 C 5.3125 -3.613281 5.363281 -4.847656 5.40625 -6.328125 C 5.457031 -7.804688 5.492188 -9.375 5.515625 -11.03125 C 5.609375 -14.9375 5.65625 -18.554688 5.65625 -21.890625 L 5.234375 -53.25 C 5.234375 -54.289062 5.472656 -55.019531 5.953125 -55.4375 C 6.441406 -55.863281 7.007812 -56.078125 7.65625 -56.078125 C 8.875 -56.078125 9.710938 -55.34375 10.171875 -53.875 C 10.210938 -53.738281 10.332031 -53.332031 10.53125 -52.65625 C 10.726562 -51.976562 10.984375 -51.09375 11.296875 -50 C 11.617188 -48.90625 11.992188 -47.640625 12.421875 -46.203125 C 12.847656 -44.765625 13.300781 -43.21875 13.78125 -41.5625 C 14.269531 -39.914062 14.773438 -38.179688 15.296875 -36.359375 C 17.140625 -30.046875 19.679688 -21.394531 22.921875 -10.40625 C 24.617188 -15.257812 27.753906 -26.253906 32.328125 -43.390625 C 33.222656 -46.796875 34.117188 -50.269531 35.015625 -53.8125 C 35.429688 -55.394531 36.382812 -56.1875 37.875 -56.1875 C 38.476562 -56.1875 38.957031 -55.890625 39.3125 -55.296875 C 39.664062 -54.710938 39.820312 -53.867188 39.78125 -52.765625 C 39.6875 -51.234375 39.640625 -48.050781 39.640625 -43.21875 Z M 39.640625 -43.21875 "/></g></g></g><g fill="#222222" fill-opacity="1"><g transform="translate(290.468861, 306.550583)"><g><path d="M 8.890625 -18.921875 L 8.96875 -6.6875 C 8.96875 -5.582031 8.96875 -4.640625 8.96875 -3.859375 C 8.988281 -3.515625 9 -3.21875 9 -2.96875 C 14.789062 -2.96875 18.640625 -3.054688 20.546875 -3.234375 C 22.523438 -3.441406 23.671875 -3.5 23.984375 -3.40625 C 24.304688 -3.320312 24.582031 -3.175781 24.8125 -2.96875 C 25.269531 -2.550781 25.5 -2.09375 25.5 -1.59375 C 25.5 -1.101562 25.28125 -0.679688 24.84375 -0.328125 C 24.414062 0.0234375 23.8125 0.179688 23.03125 0.140625 C 19.257812 -0.160156 15.851562 -0.210938 12.8125 -0.015625 C 9.78125 0.179688 8.082031 0.304688 7.71875 0.359375 C 7.351562 0.421875 7.023438 0.421875 6.734375 0.359375 C 6.453125 0.304688 6.195312 0.1875 5.96875 0 C 5.4375 -0.394531 5.191406 -0.96875 5.234375 -1.71875 C 5.578125 -8.363281 5.75 -15.710938 5.75 -23.765625 C 5.75 -31.816406 5.753906 -36.882812 5.765625 -38.96875 C 5.785156 -41.050781 5.796875 -42.953125 5.796875 -44.671875 C 5.742188 -48.367188 5.660156 -50.984375 5.546875 -52.515625 C 5.429688 -54.046875 5.457031 -54.957031 5.625 -55.25 C 5.800781 -55.550781 6.019531 -55.769531 6.28125 -55.90625 C 6.625 -56.070312 7.054688 -56.109375 7.578125 -56.015625 C 8.546875 -55.847656 9.820312 -55.765625 11.40625 -55.765625 C 14.46875 -55.765625 16.554688 -55.828125 17.671875 -55.953125 C 18.785156 -56.085938 19.5 -56.101562 19.8125 -56 C 20.132812 -55.894531 20.398438 -55.75 20.609375 -55.5625 C 21.066406 -55.195312 21.296875 -54.75 21.296875 -54.21875 C 21.296875 -53.6875 21.085938 -53.25 20.671875 -52.90625 C 20.265625 -52.5625 19.703125 -52.40625 18.984375 -52.4375 C 18.273438 -52.476562 17.519531 -52.523438 16.71875 -52.578125 C 15.914062 -52.640625 15.050781 -52.691406 14.125 -52.734375 C 12.195312 -52.804688 10.519531 -52.785156 9.09375 -52.671875 C 9.09375 -50.671875 9.082031 -48.679688 9.0625 -46.703125 C 9.039062 -44.359375 9.019531 -41.984375 9 -39.578125 C 8.925781 -33.085938 8.890625 -28.304688 8.890625 -25.234375 C 11.765625 -25.234375 13.878906 -25.300781 15.234375 -25.4375 C 16.703125 -25.601562 17.625 -25.535156 18 -25.234375 C 18.382812 -24.929688 18.578125 -24.53125 18.578125 -24.03125 C 18.578125 -22.757812 17.394531 -22.148438 15.03125 -22.203125 C 14.550781 -22.222656 14.113281 -22.234375 13.71875 -22.234375 L 10.921875 -22.265625 L 8.890625 -22.265625 Z M 8.890625 -18.921875 "/></g></g></g><g fill="#222222" fill-opacity="1"><g transform="translate(317.368579, 306.550583)"><g><path d="M 29.71875 -42.8125 C 30.445312 -40.007812 30.8125 -36.910156 30.8125 -33.515625 C 30.8125 -30.128906 30.523438 -26.984375 29.953125 -24.078125 C 29.378906 -21.171875 28.570312 -18.484375 27.53125 -16.015625 C 26.5 -13.546875 25.265625 -11.316406 23.828125 -9.328125 C 22.398438 -7.335938 20.8125 -5.640625 19.0625 -4.234375 C 15.457031 -1.335938 11.539062 0.109375 7.3125 0.109375 C 6.644531 0.109375 6.210938 -0.101562 6.015625 -0.53125 C 5.816406 -0.957031 5.71875 -1.46875 5.71875 -2.0625 L 5.71875 -5.03125 C 5.71875 -6.457031 5.710938 -8.1875 5.703125 -10.21875 C 5.691406 -12.25 5.679688 -14.507812 5.671875 -17 C 5.660156 -19.5 5.632812 -22.085938 5.59375 -24.765625 C 5.5625 -27.441406 5.53125 -30.140625 5.5 -32.859375 C 5.46875 -35.585938 5.425781 -38.191406 5.375 -40.671875 C 5.238281 -45.816406 5.078125 -49.875 4.890625 -52.84375 C 4.773438 -54.40625 5.46875 -55.28125 6.96875 -55.46875 C 9.164062 -55.78125 10.976562 -55.9375 12.40625 -55.9375 C 21.644531 -55.9375 27.414062 -51.5625 29.71875 -42.8125 Z M 9.171875 -3.140625 C 11.765625 -3.234375 14.347656 -4.347656 16.921875 -6.484375 C 21.703125 -10.453125 24.894531 -16.378906 26.5 -24.265625 C 27.050781 -26.972656 27.328125 -30.046875 27.328125 -33.484375 C 27.328125 -36.921875 26.90625 -39.910156 26.0625 -42.453125 C 25.226562 -44.992188 24.144531 -47.019531 22.8125 -48.53125 C 20.3125 -51.382812 17.085938 -52.8125 13.140625 -52.8125 C 11.410156 -52.8125 10.003906 -52.625 8.921875 -52.25 C 8.742188 -49.882812 8.65625 -46.566406 8.65625 -42.296875 C 8.65625 -37.171875 8.664062 -33.25 8.6875 -30.53125 C 8.707031 -27.820312 8.734375 -25.171875 8.765625 -22.578125 C 8.804688 -19.984375 8.84375 -17.492188 8.875 -15.109375 C 8.90625 -12.734375 8.945312 -10.601562 9 -8.71875 C 9.0625 -6.351562 9.117188 -4.492188 9.171875 -3.140625 Z M 9.171875 -3.140625 "/></g></g></g><g fill="#222222" fill-opacity="1"><g transform="translate(351.781767, 306.550583)"><g><path d="M 10.109375 -48.5625 C 10.078125 -47.601562 10.054688 -46.492188 10.046875 -45.234375 C 10.035156 -43.984375 10.03125 -38.945312 10.03125 -30.125 C 10.03125 -21.300781 10.164062 -12.019531 10.4375 -2.28125 C 10.46875 -1.539062 10.257812 -0.972656 9.8125 -0.578125 C 9.363281 -0.191406 8.890625 0 8.390625 0 C 7.898438 0 7.460938 -0.171875 7.078125 -0.515625 C 6.703125 -0.859375 6.535156 -1.628906 6.578125 -2.828125 C 6.628906 -4.023438 6.675781 -5.679688 6.71875 -7.796875 C 6.769531 -9.910156 6.816406 -12.160156 6.859375 -14.546875 C 6.953125 -19.273438 7 -23.691406 7 -27.796875 C 7 -31.898438 6.992188 -35.09375 6.984375 -37.375 C 6.972656 -39.664062 6.941406 -41.773438 6.890625 -43.703125 C 6.828125 -47.984375 6.703125 -51.394531 6.515625 -53.9375 C 6.441406 -54.675781 6.570312 -55.222656 6.90625 -55.578125 C 7.238281 -55.929688 7.671875 -56.109375 8.203125 -56.109375 C 8.734375 -56.109375 9.226562 -55.929688 9.6875 -55.578125 C 10.144531 -55.222656 10.351562 -54.617188 10.3125 -53.765625 C 10.28125 -52.921875 10.25 -52.082031 10.21875 -51.25 C 10.1875 -50.425781 10.148438 -49.53125 10.109375 -48.5625 Z M 10.109375 -48.5625 "/></g></g></g><g fill="#222222" fill-opacity="1"><g transform="translate(369.444741, 306.550583)"><g><path d="M 15.859375 -55.875 C 16.410156 -55.875 16.914062 -55.644531 17.375 -55.1875 C 17.832031 -54.726562 18.191406 -53.769531 18.453125 -52.3125 C 18.722656 -50.851562 19.125 -48.765625 19.65625 -46.046875 C 20.195312 -43.335938 20.800781 -40.441406 21.46875 -37.359375 C 22.132812 -34.285156 22.835938 -31.109375 23.578125 -27.828125 C 24.316406 -24.554688 25.050781 -21.378906 25.78125 -18.296875 C 27.550781 -11.085938 28.929688 -5.816406 29.921875 -2.484375 C 30.148438 -1.628906 30.085938 -0.945312 29.734375 -0.4375 C 29.378906 0.0625 28.984375 0.3125 28.546875 0.3125 C 28.109375 0.3125 27.707031 0.1875 27.34375 -0.0625 C 26.988281 -0.320312 26.671875 -1.070312 26.390625 -2.3125 C 26.117188 -3.550781 25.671875 -5.5625 25.046875 -8.34375 C 24.429688 -11.125 23.769531 -14.109375 23.0625 -17.296875 C 23.039062 -17.441406 23.015625 -17.570312 22.984375 -17.6875 C 21.421875 -17.75 19.21875 -17.78125 16.375 -17.78125 C 13.019531 -17.78125 10.457031 -17.738281 8.6875 -17.65625 C 8.664062 -17.507812 8.644531 -17.367188 8.625 -17.234375 C 7.21875 -10.472656 6.179688 -5.242188 5.515625 -1.546875 C 5.285156 -0.378906 4.675781 0.203125 3.6875 0.203125 C 2.65625 0.203125 2.023438 -0.300781 1.796875 -1.3125 C 1.722656 -1.613281 1.789062 -2.082031 2 -2.71875 C 2.207031 -3.363281 2.507812 -4.472656 2.90625 -6.046875 C 3.3125 -7.617188 3.75 -9.421875 4.21875 -11.453125 C 4.6875 -13.492188 5.1875 -15.71875 5.71875 -18.125 C 6.25 -20.539062 6.789062 -23.023438 7.34375 -25.578125 C 7.894531 -28.128906 8.445312 -30.695312 9 -33.28125 C 9.550781 -35.863281 10.078125 -38.359375 10.578125 -40.765625 C 11.085938 -43.179688 11.566406 -45.445312 12.015625 -47.5625 C 12.460938 -49.675781 12.820312 -51.351562 13.09375 -52.59375 C 13.53125 -54.78125 14.453125 -55.875 15.859375 -55.875 Z M 9.34375 -20.859375 C 11.09375 -20.765625 13.445312 -20.71875 16.40625 -20.71875 C 18.863281 -20.71875 20.828125 -20.75 22.296875 -20.8125 C 21.816406 -22.90625 21.335938 -25.054688 20.859375 -27.265625 C 20.097656 -30.691406 19.375 -34.015625 18.6875 -37.234375 C 17.53125 -42.492188 16.539062 -47.109375 15.71875 -51.078125 C 15.1875 -48.441406 14.425781 -44.847656 13.4375 -40.296875 C 12.15625 -34.222656 11.179688 -29.601562 10.515625 -26.4375 C 10.117188 -24.53125 9.726562 -22.671875 9.34375 -20.859375 Z M 9.34375 -20.859375 "/></g></g></g><g fill="#222222" fill-opacity="1"><g transform="translate(402.306963, 306.550583)"><g/></g></g><g fill="#222222" fill-opacity="1"><g transform="translate(415.558336, 306.550583)"><g><path d="M 29.71875 -42.8125 C 30.445312 -40.007812 30.8125 -36.910156 30.8125 -33.515625 C 30.8125 -30.128906 30.523438 -26.984375 29.953125 -24.078125 C 29.378906 -21.171875 28.570312 -18.484375 27.53125 -16.015625 C 26.5 -13.546875 25.265625 -11.316406 23.828125 -9.328125 C 22.398438 -7.335938 20.8125 -5.640625 19.0625 -4.234375 C 15.457031 -1.335938 11.539062 0.109375 7.3125 0.109375 C 6.644531 0.109375 6.210938 -0.101562 6.015625 -0.53125 C 5.816406 -0.957031 5.71875 -1.46875 5.71875 -2.0625 L 5.71875 -5.03125 C 5.71875 -6.457031 5.710938 -8.1875 5.703125 -10.21875 C 5.691406 -12.25 5.679688 -14.507812 5.671875 -17 C 5.660156 -19.5 5.632812 -22.085938 5.59375 -24.765625 C 5.5625 -27.441406 5.53125 -30.140625 5.5 -32.859375 C 5.46875 -35.585938 5.425781 -38.191406 5.375 -40.671875 C 5.238281 -45.816406 5.078125 -49.875 4.890625 -52.84375 C 4.773438 -54.40625 5.46875 -55.28125 6.96875 -55.46875 C 9.164062 -55.78125 10.976562 -55.9375 12.40625 -55.9375 C 21.644531 -55.9375 27.414062 -51.5625 29.71875 -42.8125 Z M 9.171875 -3.140625 C 11.765625 -3.234375 14.347656 -4.347656 16.921875 -6.484375 C 21.703125 -10.453125 24.894531 -16.378906 26.5 -24.265625 C 27.050781 -26.972656 27.328125 -30.046875 27.328125 -33.484375 C 27.328125 -36.921875 26.90625 -39.910156 26.0625 -42.453125 C 25.226562 -44.992188 24.144531 -47.019531 22.8125 -48.53125 C 20.3125 -51.382812 17.085938 -52.8125 13.140625 -52.8125 C 11.410156 -52.8125 10.003906 -52.625 8.921875 -52.25 C 8.742188 -49.882812 8.65625 -46.566406 8.65625 -42.296875 C 8.65625 -37.171875 8.664062 -33.25 8.6875 -30.53125 C 8.707031 -27.820312 8.734375 -25.171875 8.765625 -22.578125 C 8.804688 -19.984375 8.84375 -17.492188 8.875 -15.109375 C 8.90625 -12.734375 8.945312 -10.601562 9 -8.71875 C 9.0625 -6.351562 9.117188 -4.492188 9.171875 -3.140625 Z M 9.171875 -3.140625 "/></g></g></g><g fill="#222222" fill-opacity="1"><g transform="translate(449.971504, 306.550583)"><g><path d="M 15.859375 -55.875 C 16.410156 -55.875 16.914062 -55.644531 17.375 -55.1875 C 17.832031 -54.726562 18.191406 -53.769531 18.453125 -52.3125 C 18.722656 -50.851562 19.125 -48.765625 19.65625 -46.046875 C 20.195312 -43.335938 20.800781 -40.441406 21.46875 -37.359375 C 22.132812 -34.285156 22.835938 -31.109375 23.578125 -27.828125 C 24.316406 -24.554688 25.050781 -21.378906 25.78125 -18.296875 C 27.550781 -11.085938 28.929688 -5.816406 29.921875 -2.484375 C 30.148438 -1.628906 30.085938 -0.945312 29.734375 -0.4375 C 29.378906 0.0625 28.984375 0.3125 28.546875 0.3125 C 28.109375 0.3125 27.707031 0.1875 27.34375 -0.0625 C 26.988281 -0.320312 26.671875 -1.070312 26.390625 -2.3125 C 26.117188 -3.550781 25.671875 -5.5625 25.046875 -8.34375 C 24.429688 -11.125 23.769531 -14.109375 23.0625 -17.296875 C 23.039062 -17.441406 23.015625 -17.570312 22.984375 -17.6875 C 21.421875 -17.75 19.21875 -17.78125 16.375 -17.78125 C 13.019531 -17.78125 10.457031 -17.738281 8.6875 -17.65625 C 8.664062 -17.507812 8.644531 -17.367188 8.625 -17.234375 C 7.21875 -10.472656 6.179688 -5.242188 5.515625 -1.546875 C 5.285156 -0.378906 4.675781 0.203125 3.6875 0.203125 C 2.65625 0.203125 2.023438 -0.300781 1.796875 -1.3125 C 1.722656 -1.613281 1.789062 -2.082031 2 -2.71875 C 2.207031 -3.363281 2.507812 -4.472656 2.90625 -6.046875 C 3.3125 -7.617188 3.75 -9.421875 4.21875 -11.453125 C 4.6875 -13.492188 5.1875 -15.71875 5.71875 -18.125 C 6.25 -20.539062 6.789062 -23.023438 7.34375 -25.578125 C 7.894531 -28.128906 8.445312 -30.695312 9 -33.28125 C 9.550781 -35.863281 10.078125 -38.359375 10.578125 -40.765625 C 11.085938 -43.179688 11.566406 -45.445312 12.015625 -47.5625 C 12.460938 -49.675781 12.820312 -51.351562 13.09375 -52.59375 C 13.53125 -54.78125 14.453125 -55.875 15.859375 -55.875 Z M 9.34375 -20.859375 C 11.09375 -20.765625 13.445312 -20.71875 16.40625 -20.71875 C 18.863281 -20.71875 20.828125 -20.75 22.296875 -20.8125 C 21.816406 -22.90625 21.335938 -25.054688 20.859375 -27.265625 C 20.097656 -30.691406 19.375 -34.015625 18.6875 -37.234375 C 17.53125 -42.492188 16.539062 -47.109375 15.71875 -51.078125 C 15.1875 -48.441406 14.425781 -44.847656 13.4375 -40.296875 C 12.15625 -34.222656 11.179688 -29.601562 10.515625 -26.4375 C 10.117188 -24.53125 9.726562 -22.671875 9.34375 -20.859375 Z M 9.34375 -20.859375 "/></g></g></g><g fill="#222222" fill-opacity="1"><g transform="translate(482.833726, 306.550583)"><g><path d="M 10.109375 -48.5625 C 10.078125 -47.601562 10.054688 -46.492188 10.046875 -45.234375 C 10.035156 -43.984375 10.03125 -38.945312 10.03125 -30.125 C 10.03125 -21.300781 10.164062 -12.019531 10.4375 -2.28125 C 10.46875 -1.539062 10.257812 -0.972656 9.8125 -0.578125 C 9.363281 -0.191406 8.890625 0 8.390625 0 C 7.898438 0 7.460938 -0.171875 7.078125 -0.515625 C 6.703125 -0.859375 6.535156 -1.628906 6.578125 -2.828125 C 6.628906 -4.023438 6.675781 -5.679688 6.71875 -7.796875 C 6.769531 -9.910156 6.816406 -12.160156 6.859375 -14.546875 C 6.953125 -19.273438 7 -23.691406 7 -27.796875 C 7 -31.898438 6.992188 -35.09375 6.984375 -37.375 C 6.972656 -39.664062 6.941406 -41.773438 6.890625 -43.703125 C 6.828125 -47.984375 6.703125 -51.394531 6.515625 -53.9375 C 6.441406 -54.675781 6.570312 -55.222656 6.90625 -55.578125 C 7.238281 -55.929688 7.671875 -56.109375 8.203125 -56.109375 C 8.734375 -56.109375 9.226562 -55.929688 9.6875 -55.578125 C 10.144531 -55.222656 10.351562 -54.617188 10.3125 -53.765625 C 10.28125 -52.921875 10.25 -52.082031 10.21875 -51.25 C 10.1875 -50.425781 10.148438 -49.53125 10.109375 -48.5625 Z M 10.109375 -48.5625 "/></g></g></g><g fill="#222222" fill-opacity="1"><g transform="translate(500.496679, 306.550583)"><g><path d="M 7.171875 -56.015625 C 8.566406 -56.015625 9.265625 -55.015625 9.265625 -53.015625 C 9.265625 -50.304688 9.25 -47.453125 9.21875 -44.453125 C 9.1875 -41.453125 9.15625 -38.734375 9.125 -36.296875 C 9.101562 -33.859375 9.082031 -31.019531 9.0625 -27.78125 C 9.019531 -21.050781 8.972656 -12.789062 8.921875 -3 C 13.492188 -2.90625 17.882812 -3.066406 22.09375 -3.484375 C 22.914062 -3.578125 23.554688 -3.40625 24.015625 -2.96875 C 24.484375 -2.53125 24.71875 -2.066406 24.71875 -1.578125 C 24.71875 -1.097656 24.507812 -0.679688 24.09375 -0.328125 C 23.675781 0.0234375 23.066406 0.179688 22.265625 0.140625 C 19.648438 -0.0664062 16.828125 -0.113281 13.796875 0 C 10.773438 0.113281 8.953125 0.21875 8.328125 0.3125 C 7.710938 0.40625 7.257812 0.421875 6.96875 0.359375 C 6.6875 0.304688 6.429688 0.1875 6.203125 0 C 5.703125 -0.394531 5.472656 -0.96875 5.515625 -1.71875 C 5.785156 -7.101562 5.921875 -14.128906 5.921875 -22.796875 C 5.921875 -31.472656 5.914062 -36.835938 5.90625 -38.890625 C 5.894531 -40.953125 5.867188 -42.84375 5.828125 -44.5625 C 5.734375 -47.988281 5.535156 -51.070312 5.234375 -53.8125 C 5.171875 -54.539062 5.34375 -55.085938 5.75 -55.453125 C 6.164062 -55.828125 6.640625 -56.015625 7.171875 -56.015625 Z M 7.171875 -56.015625 "/></g></g></g><g fill="#222222" fill-opacity="1"><g transform="translate(527.534238, 306.550583)"><g><path d="M 18.71875 -12.203125 L 18.953125 -2.171875 C 18.953125 -1.140625 18.457031 -0.4375 17.46875 -0.0625 C 17.21875 0.0195312 16.921875 0.0625 16.578125 0.0625 C 16.234375 0.0625 15.863281 -0.125 15.46875 -0.5 C 15.082031 -0.875 14.921875 -1.46875 14.984375 -2.28125 C 15.054688 -3.101562 15.140625 -3.914062 15.234375 -4.71875 C 15.328125 -5.519531 15.410156 -6.335938 15.484375 -7.171875 C 15.640625 -9.097656 15.71875 -10.601562 15.71875 -11.6875 C 15.71875 -12.769531 15.707031 -13.703125 15.6875 -14.484375 C 15.664062 -15.265625 15.628906 -16.066406 15.578125 -16.890625 C 15.554688 -17.554688 15.523438 -18.300781 15.484375 -19.125 C 14.722656 -21.0625 13.878906 -23.117188 12.953125 -25.296875 C 11.785156 -28.148438 10.570312 -31.113281 9.3125 -34.1875 C 4.113281 -46.695312 1.515625 -53.46875 1.515625 -54.5 C 1.515625 -55.070312 1.6875 -55.53125 2.03125 -55.875 C 2.375 -56.21875 2.816406 -56.398438 3.359375 -56.421875 C 3.898438 -56.453125 4.316406 -56.273438 4.609375 -55.890625 C 4.910156 -55.515625 5.351562 -54.3125 5.9375 -52.28125 C 6.53125 -50.257812 7.398438 -47.65625 8.546875 -44.46875 C 9.691406 -41.289062 10.851562 -38.253906 12.03125 -35.359375 C 13.570312 -31.523438 15.304688 -27.445312 17.234375 -23.125 C 17.578125 -24.070312 17.945312 -25.070312 18.34375 -26.125 C 19.007812 -27.851562 19.691406 -29.664062 20.390625 -31.5625 C 21.085938 -33.457031 21.796875 -35.394531 22.515625 -37.375 C 23.242188 -39.363281 23.941406 -41.3125 24.609375 -43.21875 C 26.222656 -47.882812 27.242188 -50.992188 27.671875 -52.546875 C 28.109375 -54.097656 28.476562 -55.164062 28.78125 -55.75 C 29.082031 -56.34375 29.53125 -56.640625 30.125 -56.640625 C 31.226562 -56.640625 31.78125 -56.097656 31.78125 -55.015625 C 31.78125 -54.179688 30.957031 -51.628906 29.3125 -47.359375 C 27.675781 -43.085938 26.617188 -40.28125 26.140625 -38.9375 C 25.671875 -37.59375 25.21875 -36.328125 24.78125 -35.140625 C 24.34375 -33.953125 23.867188 -32.6875 23.359375 -31.34375 C 22.859375 -30 22.335938 -28.617188 21.796875 -27.203125 C 21.253906 -25.796875 20.742188 -24.445312 20.265625 -23.15625 C 19.710938 -21.78125 19.253906 -20.625 18.890625 -19.6875 C 18.773438 -15.59375 18.71875 -13.097656 18.71875 -12.203125 Z M 18.71875 -12.203125 "/></g></g></g><g fill="#161615" fill-opacity="1"><g transform="translate(186.014978, 202.583413)"><g><path d="M 10.59375 -35.75 C 12.40625 -35.75 13.546875 -35.046875 14.015625 -33.640625 C 14.484375 -32.242188 14.71875 -29.9375 14.71875 -26.71875 C 14.71875 -23.5 15.160156 -20.484375 16.046875 -17.671875 C 16.929688 -14.867188 18.148438 -12.507812 19.703125 -10.59375 C 22.867188 -6.75 27.253906 -4.828125 32.859375 -4.828125 C 38.472656 -4.828125 42.941406 -6.890625 46.265625 -11.015625 C 49.585938 -15.148438 51.25 -21.082031 51.25 -28.8125 C 51.25 -39.144531 46.859375 -48.335938 38.078125 -56.390625 C 35.585938 -58.671875 33.03125 -60.925781 30.40625 -63.15625 C 27.789062 -65.394531 25.234375 -67.707031 22.734375 -70.09375 C 20.242188 -72.476562 18.015625 -75.125 16.046875 -78.03125 C 11.734375 -84.414062 9.578125 -91.6875 9.578125 -99.84375 C 9.578125 -108.195312 12.046875 -114.945312 16.984375 -120.09375 C 21.859375 -125.175781 27.984375 -127.71875 35.359375 -127.71875 C 41.691406 -127.71875 46.882812 -125.59375 50.9375 -121.34375 C 55.445312 -116.457031 57.523438 -109.707031 57.171875 -101.09375 C 57.117188 -100.675781 57.101562 -100.234375 57.125 -99.765625 C 57.15625 -99.296875 57.101562 -98.410156 56.96875 -97.109375 C 56.84375 -95.816406 56.296875 -94.664062 55.328125 -93.65625 C 54.367188 -92.644531 53.332031 -92.140625 52.21875 -92.140625 C 51.101562 -92.140625 50.15625 -92.644531 49.375 -93.65625 C 48.59375 -94.664062 48.332031 -96 48.59375 -97.65625 C 49.269531 -101.445312 49.609375 -104.316406 49.609375 -106.265625 C 49.609375 -108.210938 49.253906 -110.066406 48.546875 -111.828125 C 47.847656 -113.597656 46.851562 -115.160156 45.5625 -116.515625 C 42.757812 -119.367188 39.125 -120.796875 34.65625 -120.796875 C 29.726562 -120.796875 25.703125 -119.109375 22.578125 -115.734375 C 19.160156 -111.992188 17.453125 -107.394531 17.453125 -101.9375 C 17.453125 -96.488281 18.046875 -92.085938 19.234375 -88.734375 C 20.429688 -85.390625 22.003906 -82.367188 23.953125 -79.671875 C 25.898438 -76.972656 28.117188 -74.503906 30.609375 -72.265625 C 33.097656 -70.035156 35.628906 -67.828125 38.203125 -65.640625 C 40.773438 -63.460938 43.304688 -61.21875 45.796875 -58.90625 C 48.285156 -56.601562 50.515625 -54.050781 52.484375 -51.25 C 56.796875 -44.914062 58.953125 -37.617188 58.953125 -29.359375 C 58.953125 -19.703125 56.460938 -11.992188 51.484375 -6.234375 C 46.546875 -0.515625 39.953125 2.34375 31.703125 2.34375 C 24.015625 2.34375 17.753906 -0.617188 12.921875 -6.546875 C 8.359375 -12.097656 6.078125 -18.351562 6.078125 -25.3125 C 6.078125 -32.269531 7.582031 -35.75 10.59375 -35.75 Z M 10.59375 -35.75 "/></g></g></g><g fill="#161615" fill-opacity="1"><g transform="translate(251.775892, 202.583413)"><g><path d="M 89.5625 -97.65625 L 89.640625 -69.546875 C 89.640625 -49.921875 90.054688 -28.347656 90.890625 -4.828125 C 90.941406 -3.171875 90.507812 -1.953125 89.59375 -1.171875 C 88.6875 -0.390625 87.660156 0 86.515625 0 C 85.378906 0 84.34375 -0.4375 83.40625 -1.3125 C 82.476562 -2.195312 82.015625 -3.472656 82.015625 -5.140625 C 82.785156 -28.503906 83.171875 -47.972656 83.171875 -63.546875 L 83.171875 -103.890625 C 83.171875 -106.898438 83.144531 -109.726562 83.09375 -112.375 C 81.957031 -107.96875 80.476562 -102.234375 78.65625 -95.171875 C 74.5 -79.648438 71.585938 -68.914062 69.921875 -62.96875 C 68.265625 -57.019531 66.609375 -51.164062 64.953125 -45.40625 C 61.523438 -33.507812 58.332031 -23.070312 55.375 -14.09375 C 55.0625 -13.050781 54.453125 -12.269531 53.546875 -11.75 C 52.640625 -11.238281 51.769531 -10.984375 50.9375 -10.984375 C 49.320312 -10.984375 48.226562 -12.019531 47.65625 -14.09375 C 47.40625 -14.925781 46.796875 -16.9375 45.828125 -20.125 C 44.867188 -23.320312 43.675781 -27.269531 42.25 -31.96875 C 40.820312 -36.664062 39.238281 -41.9375 37.5 -47.78125 C 35.757812 -53.625 33.96875 -59.609375 32.125 -65.734375 C 30.28125 -71.859375 28.472656 -77.929688 26.703125 -83.953125 C 24.941406 -89.972656 23.335938 -95.53125 21.890625 -100.625 C 20.691406 -104.832031 19.675781 -108.46875 18.84375 -111.53125 L 19 -92.21875 C 19 -68.695312 19.242188 -49.25 19.734375 -33.875 C 20.234375 -18.507812 20.507812 -9.578125 20.5625 -7.078125 C 20.613281 -4.585938 20.492188 -3.054688 20.203125 -2.484375 C 19.921875 -1.921875 19.546875 -1.457031 19.078125 -1.09375 C 17.054688 0.625 15.054688 0.570312 13.078125 -1.25 C 12.148438 -2.125 11.75 -3.675781 11.875 -5.90625 C 12.007812 -8.144531 12.128906 -10.9375 12.234375 -14.28125 C 12.335938 -17.632812 12.414062 -21.179688 12.46875 -24.921875 C 12.664062 -33.742188 12.765625 -41.921875 12.765625 -49.453125 L 11.84375 -120.328125 C 11.84375 -122.660156 12.382812 -124.304688 13.46875 -125.265625 C 14.5625 -126.234375 15.835938 -126.71875 17.296875 -126.71875 C 20.046875 -126.71875 21.9375 -125.054688 22.96875 -121.734375 C 23.070312 -121.421875 23.34375 -120.5 23.78125 -118.96875 C 24.226562 -117.4375 24.816406 -115.4375 25.546875 -112.96875 C 26.273438 -110.5 27.117188 -107.640625 28.078125 -104.390625 C 29.035156 -101.148438 30.054688 -97.660156 31.140625 -93.921875 C 32.234375 -90.179688 33.378906 -86.265625 34.578125 -82.171875 C 38.734375 -67.890625 44.472656 -48.335938 51.796875 -23.515625 C 55.628906 -34.472656 62.710938 -59.316406 73.046875 -98.046875 C 75.078125 -105.734375 77.101562 -113.578125 79.125 -121.578125 C 80.0625 -125.160156 82.21875 -126.953125 85.59375 -126.953125 C 86.9375 -126.953125 88.007812 -126.285156 88.8125 -124.953125 C 89.625 -123.628906 89.976562 -121.722656 89.875 -119.234375 C 89.664062 -115.753906 89.5625 -108.5625 89.5625 -97.65625 Z M 89.5625 -97.65625 "/></g></g></g><g fill="#161615" fill-opacity="1"><g transform="translate(352.735176, 202.583413)"><g><path d="M 67.140625 -96.734375 C 68.796875 -90.398438 69.625 -83.398438 69.625 -75.734375 C 69.625 -68.078125 68.972656 -60.960938 67.671875 -54.390625 C 66.378906 -47.828125 64.5625 -41.753906 62.21875 -36.171875 C 59.882812 -30.585938 57.09375 -25.550781 53.84375 -21.0625 C 50.601562 -16.570312 47.007812 -12.742188 43.0625 -9.578125 C 34.914062 -3.035156 26.066406 0.234375 16.515625 0.234375 C 15.003906 0.234375 14.023438 -0.242188 13.578125 -1.203125 C 13.140625 -2.160156 12.921875 -3.316406 12.921875 -4.671875 L 12.921875 -11.375 C 12.921875 -14.59375 12.90625 -18.5 12.875 -23.09375 C 12.851562 -27.6875 12.828125 -32.800781 12.796875 -38.4375 C 12.773438 -44.070312 12.722656 -49.910156 12.640625 -55.953125 C 12.566406 -62.003906 12.492188 -68.101562 12.421875 -74.25 C 12.347656 -80.40625 12.257812 -86.289062 12.15625 -91.90625 C 11.84375 -103.53125 11.476562 -112.691406 11.0625 -119.390625 C 10.800781 -122.921875 12.359375 -124.894531 15.734375 -125.3125 C 20.710938 -126.039062 24.8125 -126.40625 28.03125 -126.40625 C 48.90625 -126.40625 61.941406 -116.515625 67.140625 -96.734375 Z M 20.71875 -7.09375 C 26.582031 -7.300781 32.421875 -9.816406 38.234375 -14.640625 C 49.035156 -23.617188 56.253906 -37.015625 59.890625 -54.828125 C 61.140625 -60.953125 61.765625 -67.894531 61.765625 -75.65625 C 61.765625 -83.414062 60.816406 -90.164062 58.921875 -95.90625 C 57.023438 -101.644531 54.570312 -106.226562 51.5625 -109.65625 C 45.894531 -116.09375 38.597656 -119.3125 29.671875 -119.3125 C 25.773438 -119.3125 22.609375 -118.894531 20.171875 -118.0625 C 19.753906 -112.71875 19.546875 -105.21875 19.546875 -95.5625 C 19.546875 -83.976562 19.570312 -75.125 19.625 -69 C 19.675781 -62.875 19.738281 -56.878906 19.8125 -51.015625 C 19.894531 -45.148438 19.972656 -39.53125 20.046875 -34.15625 C 20.128906 -28.78125 20.222656 -23.960938 20.328125 -19.703125 C 20.484375 -14.359375 20.613281 -10.15625 20.71875 -7.09375 Z M 20.71875 -7.09375 "/></g></g></g><g clip-path="url(#cee3fea946)"><path fill="#84a48c" d="M 348.34375 61.589844 C 353.535156 61.683594 358.621094 61.347656 363.703125 61.207031 C 368.296875 61.078125 372.878906 60.753906 377.472656 60.671875 C 378.714844 60.648438 379.964844 60.578125 381.207031 60.53125 C 382.121094 60.496094 382.800781 60.761719 383.492188 61.382812 C 385.414062 63.105469 387.464844 64.667969 389.597656 66.125 C 390.183594 66.535156 390.792969 66.917969 391.496094 67.082031 C 392.023438 67.210938 392.597656 67.257812 392.984375 66.78125 C 393.324219 66.359375 393.230469 65.859375 393.03125 65.390625 C 392.703125 64.621094 392.351562 63.851562 392.011719 63.082031 C 391.917969 62.886719 391.824219 62.675781 391.753906 62.464844 C 391.578125 61.929688 391.121094 61.371094 391.355469 60.832031 C 391.601562 60.261719 392.316406 60.613281 392.808594 60.472656 C 393.957031 60.15625 394.941406 59.597656 395.808594 58.804688 C 397.410156 57.324219 398.429688 55.457031 399.191406 53.453125 C 400.515625 49.957031 401.230469 46.332031 401.535156 42.597656 C 401.839844 38.902344 401.6875 35.265625 400.902344 31.652344 C 399.847656 26.777344 397.773438 22.347656 394.730469 18.382812 C 392.386719 15.328125 389.164062 13.605469 385.472656 12.671875 C 382.015625 11.785156 378.480469 11.296875 374.953125 10.804688 C 371.730469 10.363281 368.507812 9.917969 365.273438 9.558594 C 361.699219 9.160156 358.09375 8.882812 354.472656 8.894531 C 351.039062 8.90625 347.59375 8.800781 344.160156 9 C 339.042969 9.289062 333.945312 9.863281 329 11.332031 C 328.578125 11.457031 328.15625 11.632812 327.746094 11.773438 C 322.746094 13.523438 320.226562 17.335938 318.984375 22.195312 C 318.210938 25.25 317.707031 28.328125 317.507812 31.476562 C 317.402344 33.0625 317.355469 34.660156 317.332031 36.246094 C 317.285156 40.128906 318.164062 43.882812 319.054688 47.625 C 319.335938 48.824219 319.675781 50.027344 320.0625 51.203125 C 321.46875 55.492188 324.597656 58.070312 328.695312 59.65625 C 330.710938 60.4375 332.832031 60.742188 334.953125 60.984375 C 339.441406 61.519531 343.941406 61.695312 348.34375 61.589844 Z M 348.34375 61.589844 " fill-opacity="1" fill-rule="nonzero"/></g><g clip-path="url(#55d56b59dd)"><path fill="#6eb5fa" d="M 308.667969 40.839844 C 304.671875 40.914062 300.757812 40.652344 296.84375 40.542969 C 293.308594 40.445312 289.78125 40.191406 286.246094 40.128906 C 285.289062 40.109375 284.324219 40.054688 283.371094 40.019531 C 282.664062 39.992188 282.140625 40.199219 281.609375 40.679688 C 280.132812 42.011719 278.550781 43.222656 276.910156 44.351562 C 276.460938 44.664062 275.992188 44.964844 275.449219 45.089844 C 275.042969 45.1875 274.601562 45.222656 274.304688 44.855469 C 274.042969 44.53125 274.113281 44.140625 274.269531 43.78125 C 274.519531 43.1875 274.792969 42.589844 275.054688 41.996094 C 275.125 41.84375 275.199219 41.679688 275.25 41.515625 C 275.386719 41.101562 275.738281 40.667969 275.558594 40.253906 C 275.367188 39.8125 274.820312 40.082031 274.441406 39.976562 C 273.554688 39.730469 272.796875 39.296875 272.128906 38.683594 C 270.894531 37.539062 270.109375 36.097656 269.523438 34.546875 C 268.503906 31.839844 267.953125 29.035156 267.71875 26.148438 C 267.484375 23.289062 267.601562 20.476562 268.207031 17.679688 C 269.019531 13.910156 270.617188 10.480469 272.960938 7.414062 C 274.765625 5.050781 277.246094 3.714844 280.085938 2.996094 C 282.746094 2.308594 285.472656 1.929688 288.1875 1.550781 C 290.667969 1.207031 293.144531 0.867188 295.636719 0.585938 C 298.386719 0.28125 301.164062 0.0625 303.953125 0.0703125 C 306.59375 0.0820312 309.246094 0 311.890625 0.152344 C 315.832031 0.378906 319.753906 0.820312 323.5625 1.957031 C 323.886719 2.054688 324.210938 2.191406 324.527344 2.300781 C 328.378906 3.652344 330.316406 6.601562 331.273438 10.363281 C 331.867188 12.726562 332.253906 15.109375 332.410156 17.542969 C 332.488281 18.769531 332.527344 20.003906 332.542969 21.230469 C 332.582031 24.234375 331.902344 27.140625 331.21875 30.035156 C 331 30.964844 330.742188 31.894531 330.441406 32.804688 C 329.359375 36.125 326.953125 38.117188 323.796875 39.34375 C 322.242188 39.949219 320.609375 40.183594 318.980469 40.371094 C 315.523438 40.785156 312.0625 40.921875 308.667969 40.839844 Z M 308.667969 40.839844 " fill-opacity="1" fill-rule="nonzero"/></g></svg>